<svg width="28" height="26" viewBox="0 0 28 26" fill="none" xmlns="http://www.w3.org/2000/svg">
<path d="M4.47823 5C6.89813 2.53152 10.2703 1 14.0001 1C17.73 1 21.1022 2.53152 23.5221 5M19.9631 9C18.4982 7.36334 16.3694 6.33333 14.0001 6.33333C11.6308 6.33333 9.50201 7.36334 8.03715 9M2.52217 19.0947C8.89499 12.7801 19.1802 12.8272 25.4949 19.2001C25.6874 19.3944 25.874 19.5923 26.0547 19.7937C26.4319 20.214 26.6205 20.4242 26.7046 20.7222C26.7732 20.9651 26.7639 21.2824 26.6812 21.5208C26.5798 21.8134 26.3533 22.0379 25.9002 22.4868L24.3059 24.0666C23.9235 24.4455 23.7323 24.635 23.506 24.7344C23.3062 24.8223 23.0878 24.8598 22.87 24.8435C22.6235 24.8251 22.3801 24.7101 21.8934 24.4802L19.2892 23.2504C18.7228 22.9829 18.4397 22.8492 18.256 22.638C18.0941 22.4518 17.987 22.2244 17.9467 21.9809C17.9009 21.7049 17.9783 21.4014 18.133 20.7944L18.4531 19.5383C15.6044 18.4529 12.4184 18.4363 9.56049 19.4975L9.86911 20.7565C10.0182 21.3649 10.0928 21.6691 10.0445 21.9447C10.002 22.1877 9.8928 22.4142 9.72917 22.5989C9.5436 22.8084 9.25921 22.9395 8.69041 23.2018L6.07509 24.4077C5.58622 24.6331 5.34177 24.7458 5.09512 24.762C4.87725 24.7762 4.65921 24.7368 4.46015 24.6471C4.23479 24.5455 4.04533 24.3543 3.66641 23.9719L2.08667 22.3776C1.63773 21.9246 1.41326 21.698 1.31455 21.4045C1.23412 21.1653 1.22773 20.8479 1.29848 20.6057C1.38529 20.3085 1.57583 20.1 1.9569 19.6832C2.13944 19.4835 2.32787 19.2873 2.52217 19.0947Z" stroke="url(#paint0_linear_552_131)" stroke-width="2" stroke-linecap="round" stroke-linejoin="round"/>
<defs>
<linearGradient id="paint0_linear_552_131" x1="1.24951" y1="12.9236" x2="26.7503" y2="12.9236" gradientUnits="userSpaceOnUse">
<stop stop-color="#445DF4"/>
<stop offset="1" stop-color="#DA5870"/>
</linearGradient>
</defs>
</svg>
