<svg width="30" height="30" viewBox="0 0 30 30" fill="none" xmlns="http://www.w3.org/2000/svg">
<path d="M6.23277 0.279785C2.94559 0.279785 0.280273 2.9451 0.280273 6.23229V23.8323C0.280273 27.1195 2.94559 29.7835 6.23277 29.7835H23.8328C27.12 29.7835 29.784 27.1195 29.784 23.8323V6.22478V6.21729C29.7127 2.93779 27.0636 0.279785 23.8328 0.279785H6.23277ZM6.23277 1.55979H23.8328C26.362 1.55979 28.4473 3.63752 28.504 6.24604V23.8323C28.504 26.4331 26.4336 28.5035 23.8328 28.5035H20.1203V17.5598H23.2228L24.0753 12.4398H20.1203V11.1598C20.1203 10.8078 20.1553 10.7794 20.2815 10.6985C20.4077 10.6176 20.7791 10.5198 21.4003 10.5198H23.9603V6.21353L23.5165 6.07103C23.5165 6.07103 21.4834 5.39979 19.4803 5.39979C17.6219 5.39979 16.2533 6.00999 15.4353 7.08478C14.6173 8.15958 14.3603 9.58316 14.3603 11.1598V12.4398H12.4403V17.5598H14.3603V28.5035H6.23277C3.63196 28.5035 1.56027 26.4331 1.56027 23.8323V6.23229C1.56027 3.63147 3.63196 1.55979 6.23277 1.55979ZM19.4803 6.67978C20.8682 6.67978 22.152 7.02387 22.6803 7.17479V9.23979H21.4003C20.6775 9.23979 20.0881 9.30194 19.5903 9.62103C19.0925 9.94013 18.8403 10.5518 18.8403 11.1598V13.7198H22.5653L22.1378 16.2798H18.8403V28.5035H15.6403V16.2798H13.7203V13.7198H15.6403V11.1598C15.6403 9.72841 15.896 8.59299 16.454 7.85979C17.012 7.12658 17.8826 6.67978 19.4803 6.67978Z" fill="white"/>
</svg>
