<svg width="30" height="30" viewBox="0 0 30 30" fill="none" xmlns="http://www.w3.org/2000/svg">
<path d="M6.23277 0.280029C2.94559 0.280029 0.280273 2.94534 0.280273 6.23253V23.8325C0.280273 27.1197 2.94559 29.7838 6.23277 29.7838H23.8328C27.12 29.7838 29.784 27.1197 29.784 23.8325V6.22503V6.21753C29.7127 2.93804 27.0636 0.280029 23.8328 0.280029H6.23277ZM6.23277 1.56003H23.8328C26.362 1.56003 28.4473 3.63777 28.504 6.24628V23.8325C28.504 26.4333 26.4336 28.5038 23.8328 28.5038H20.1203V17.56H23.2228L24.0753 12.44H20.1203V11.16C20.1203 10.808 20.1553 10.7797 20.2815 10.6988C20.4077 10.6179 20.7791 10.52 21.4003 10.52H23.9603V6.21378L23.5165 6.07128C23.5165 6.07128 21.4834 5.40003 19.4803 5.40003C17.6219 5.40003 16.2533 6.01023 15.4353 7.08503C14.6173 8.15983 14.3603 9.58341 14.3603 11.16V12.44H12.4403V17.56H14.3603V28.5038H6.23277C3.63196 28.5038 1.56027 26.4333 1.56027 23.8325V6.23253C1.56027 3.63172 3.63196 1.56003 6.23277 1.56003ZM19.4803 6.68003C20.8682 6.68003 22.152 7.02412 22.6803 7.17503V9.24003H21.4003C20.6775 9.24003 20.0881 9.30218 19.5903 9.62128C19.0925 9.94038 18.8403 10.552 18.8403 11.16V13.72H22.5653L22.1378 16.28H18.8403V28.5038H15.6403V16.28H13.7203V13.72H15.6403V11.16C15.6403 9.72865 15.896 8.59323 16.454 7.86003C17.012 7.12683 17.8826 6.68003 19.4803 6.68003Z" fill="url(#paint0_linear_537_4559)"/>
<defs>
<linearGradient id="paint0_linear_537_4559" x1="0.280273" y1="15.0319" x2="29.784" y2="15.0319" gradientUnits="userSpaceOnUse">
<stop stop-color="#445DF4"/>
<stop offset="1" stop-color="#DA5870"/>
</linearGradient>
</defs>
</svg>
