<svg width="30" height="30" viewBox="0 0 30 30" fill="none" xmlns="http://www.w3.org/2000/svg">
<path d="M9.23992 0.920044C4.66683 0.920044 0.919922 4.66695 0.919922 9.24004V20.76C0.919922 25.3331 4.66683 29.08 9.23992 29.08H20.7599C25.333 29.08 29.0799 25.3331 29.0799 20.76V9.24004C29.0799 4.66695 25.333 0.920044 20.7599 0.920044H9.23992ZM9.23992 2.20004H20.7599C24.6348 2.20004 27.7999 5.36513 27.7999 9.24004V20.76C27.7999 24.635 24.6348 27.8 20.7599 27.8H9.23992C5.36501 27.8 2.19992 24.635 2.19992 20.76V9.24004C2.19992 5.36513 5.36501 2.20004 9.23992 2.20004ZM22.6799 6.04004C21.9759 6.04004 21.3999 6.61604 21.3999 7.32004C21.3999 8.02404 21.9759 8.60004 22.6799 8.60004C23.3839 8.60004 23.9599 8.02404 23.9599 7.32004C23.9599 6.61604 23.3839 6.04004 22.6799 6.04004ZM14.9999 7.96004C11.1308 7.96004 7.95992 11.131 7.95992 15C7.95992 18.8691 11.1308 22.04 14.9999 22.04C18.869 22.04 22.0399 18.8691 22.0399 15C22.0399 11.131 18.869 7.96004 14.9999 7.96004ZM14.9999 9.24004C18.1708 9.24004 20.7599 11.8291 20.7599 15C20.7599 18.171 18.1708 20.76 14.9999 20.76C11.829 20.76 9.23992 18.171 9.23992 15C9.23992 11.8291 11.829 9.24004 14.9999 9.24004Z" fill="url(#paint0_linear_537_4534)"/>
<defs>
<linearGradient id="paint0_linear_537_4534" x1="0.919922" y1="15" x2="29.0799" y2="15" gradientUnits="userSpaceOnUse">
<stop stop-color="#445DF4"/>
<stop offset="1" stop-color="#DA5870"/>
</linearGradient>
</defs>
</svg>
