<svg width="30" height="30" viewBox="0 0 30 30" fill="none" xmlns="http://www.w3.org/2000/svg">
<path d="M15.0001 0.280029C6.87208 0.280029 0.280079 6.87203 0.280079 15C0.280079 17.624 0.984079 20.0555 2.20008 22.1675L0.280079 28.8875C0.216079 29.0795 0.279579 29.3355 0.407579 29.5275C0.599579 29.7195 0.855579 29.72 1.04758 29.72L8.08758 27.9925C10.1356 29.0805 12.5041 29.72 15.0001 29.72C23.1281 29.72 29.7201 23.128 29.7201 15C29.7201 6.87203 23.1281 0.280029 15.0001 0.280029ZM15.0001 1.56003C22.4241 1.56003 28.4401 7.57603 28.4401 15C28.4401 22.424 22.4241 28.44 15.0001 28.44C12.6321 28.44 10.3926 27.8005 8.47258 26.7125C8.34458 26.6485 8.15183 26.5835 8.02383 26.6475L1.88008 28.1838L3.48008 22.2963C3.54408 22.1043 3.48033 21.9758 3.41633 21.7838C2.26433 19.7998 1.56008 17.496 1.56008 15C1.56008 7.57603 7.57608 1.56003 15.0001 1.56003ZM10.5926 7.31253C10.4726 7.30453 10.3926 7.32003 10.3926 7.32003H9.62383C9.23983 7.32003 8.66458 7.44803 8.15258 7.96003C7.83258 8.28003 6.68008 9.43203 6.68008 11.48C6.68008 13.656 8.15183 15.5118 8.34383 15.7038C8.34383 15.7038 8.60008 16.0245 8.92008 16.4725C9.24008 16.9205 9.68783 17.4325 10.2638 18.0725C11.4158 19.2885 13.0158 20.6955 15.0638 21.5275C15.9598 21.9115 16.7278 22.168 17.3038 22.36C18.3278 22.68 19.2886 22.6165 19.9926 22.5525C20.5046 22.4885 21.0803 22.2315 21.6563 21.8475C22.2323 21.4635 22.8078 21.0163 23.0638 20.3763C23.2558 19.8643 23.3198 19.4165 23.3838 19.0325V18.52C23.3838 18.328 23.3206 18.3285 23.1926 18.0725C22.8726 17.5605 22.5516 17.5605 22.1676 17.4325C21.9756 17.3045 21.3996 17.0485 20.8876 16.7925C20.3116 16.5365 19.8638 16.2805 19.5438 16.1525C19.3518 16.0885 19.0963 15.9598 18.7763 16.0238C18.4563 16.0878 18.1358 16.28 17.9438 16.6C17.7518 16.856 17.0486 17.7515 16.7926 18.0075L16.7276 17.9438C16.4716 17.8158 16.0881 17.6885 15.6401 17.4325C15.1281 17.1765 14.5516 16.7925 13.8476 16.1525C12.8236 15.2565 12.1196 14.1678 11.9276 13.7838C12.1196 13.5278 12.3758 13.272 12.5038 13.08C12.5678 13.016 12.6198 12.9515 12.6638 12.8875C12.7078 12.8235 12.7443 12.7603 12.7763 12.6963C12.8403 12.5683 12.8886 12.4405 12.9526 12.3125C13.2086 11.8645 13.0806 11.3523 12.9526 11.0963C12.9526 11.0963 12.8881 10.9045 12.7601 10.7125C12.6961 10.5205 12.5681 10.1998 12.4401 9.94378C12.1841 9.36778 11.9281 8.72778 11.8001 8.34378C11.6081 7.89578 11.3526 7.57553 11.0326 7.44753C10.8726 7.35153 10.7126 7.32053 10.5926 7.31253ZM9.62383 8.60003H10.3276H10.4563C10.4563 8.60003 10.5198 8.66428 10.5838 8.85628C10.7118 9.24028 11.0318 9.88028 11.2238 10.4563C11.3518 10.7123 11.4798 11.0318 11.5438 11.2238C11.6078 11.4158 11.6723 11.5445 11.7363 11.6725C11.7363 11.7365 11.8001 11.7363 11.8001 11.7363C11.6721 11.9923 11.6721 12.0555 11.4801 12.2475C11.2881 12.5035 11.0316 12.7595 10.9676 12.8875C10.9036 13.0155 10.7118 13.144 10.5838 13.4C10.4558 13.656 10.5206 14.1038 10.7126 14.4238C10.9686 14.8078 11.7366 16.0883 12.9526 17.1763C13.7206 17.8803 14.4241 18.3278 15.0001 18.5838C15.5761 18.9038 16.0246 19.0323 16.1526 19.0963C16.4086 19.2243 16.6638 19.2875 16.9838 19.2875C17.3038 19.2875 17.5606 19.032 17.7526 18.84C18.0086 18.584 18.6476 17.8158 18.9676 17.3038L19.0963 17.3675C19.0963 17.3675 19.2878 17.432 19.5438 17.56C19.7998 17.688 20.0563 17.8158 20.3763 17.9438C20.9523 18.1998 21.4643 18.4558 21.6563 18.5838L22.0401 18.7763V18.9675C22.0401 19.2235 21.9756 19.6085 21.8476 19.9925C21.7836 20.1845 21.4003 20.5678 21.0163 20.8238C20.5683 21.0798 20.0558 21.2723 19.8638 21.3363C19.2878 21.4003 18.5846 21.4635 17.7526 21.2075C17.2406 21.0155 16.5361 20.824 15.6401 20.44C13.8481 19.672 12.3756 18.392 11.2876 17.24C10.7756 16.664 10.3276 16.1515 10.0076 15.7675C9.68758 15.3835 9.56058 15.128 9.43258 15C9.17658 14.744 7.96008 13.0798 7.96008 11.5438C7.96008 9.94378 8.72858 9.30428 9.11258 8.85628C9.30458 8.60028 9.55983 8.60003 9.62383 8.60003Z" fill="url(#paint0_linear_537_4548)"/>
<defs>
<linearGradient id="paint0_linear_537_4548" x1="0.254883" y1="15" x2="29.7201" y2="15" gradientUnits="userSpaceOnUse">
<stop stop-color="#445DF4"/>
<stop offset="1" stop-color="#DA5870"/>
</linearGradient>
</defs>
</svg>
