<svg width="29" height="22" viewBox="0 0 29 22" fill="none" xmlns="http://www.w3.org/2000/svg">
<path d="M14.6162 0.76001C10.5503 0.76001 6.57873 1.07441 4.31117 1.54126L4.29742 1.54376L4.28492 1.54751C2.82273 1.91306 1.6882 2.92422 1.44367 4.28876V4.29001C1.17725 5.68909 0.919922 8.01957 0.919922 11C0.919922 14.1628 1.24051 16.3719 1.57242 17.775C1.81614 19.1357 2.94005 20.2233 4.44242 20.5238H4.44367H4.44617C6.82491 20.9863 10.6775 21.3038 14.6799 21.3038C18.6823 21.3038 22.5978 20.9867 24.9787 20.5238L24.9949 20.5213L25.0112 20.5175C26.4762 20.1512 27.6122 19.1361 27.8537 17.7675L27.8549 17.76L27.8562 17.7538C28.1131 16.0837 28.4387 13.8068 28.5037 10.95V10.9438V10.9363C28.5037 8.58616 28.2426 6.30883 27.8537 4.16876C27.6079 2.7762 26.4185 1.78964 25.0187 1.42126L24.9849 1.41251L24.9487 1.40626C22.7279 1.07978 18.936 0.76001 14.6162 0.76001ZM14.6162 2.04001C18.8468 2.04001 22.5733 2.35714 24.7112 2.66876C25.7314 2.94426 26.4564 3.61355 26.5937 4.39126V4.39251V4.39501C26.9718 6.47479 27.2229 8.6732 27.2237 10.9263C27.1604 13.6939 26.8471 15.8918 26.5924 17.5475C26.4494 18.3509 25.7968 18.995 24.7099 19.27C22.4799 19.7013 18.6029 20.0238 14.6799 20.0238C10.7469 20.0238 6.92057 19.7009 4.69117 19.2675H4.68992C3.63772 19.0555 2.97296 18.3555 2.82992 17.545L2.82742 17.5263L2.82242 17.5075C2.51621 16.2214 2.19992 14.0925 2.19992 11C2.19992 8.09311 2.45565 5.81648 2.70117 4.52751V4.52376L2.70242 4.51876C2.8445 3.71368 3.49812 3.06761 4.58742 2.79251C6.67549 2.36475 10.6267 2.04001 14.6162 2.04001ZM11.1599 5.85876V6.96751V16.1413L20.0549 11L11.1599 5.85876ZM12.4399 8.07751L17.4974 11L12.4399 13.9225V8.07751Z" fill="url(#paint0_linear_537_4541)"/>
<defs>
<linearGradient id="paint0_linear_537_4541" x1="0.919922" y1="11.0319" x2="28.5037" y2="11.0319" gradientUnits="userSpaceOnUse">
<stop stop-color="#445DF4"/>
<stop offset="1" stop-color="#DA5870"/>
</linearGradient>
</defs>
</svg>
