<svg width="51" height="50" viewBox="0 0 51 50" fill="none" xmlns="http://www.w3.org/2000/svg">
<path d="M11.6667 14.9998V30.9998M49 28.3332V10.1998C49 7.21289 49 5.71942 48.4187 4.57855C47.9074 3.57502 47.0915 2.75913 46.088 2.2478C44.9471 1.6665 43.4536 1.6665 40.4667 1.6665H9.53333C6.54639 1.6665 5.05291 1.6665 3.91205 2.2478C2.90852 2.75913 2.09262 3.57502 1.5813 4.57855C1 5.71942 1 7.21289 1 10.1998V35.7998C1 38.7868 1 40.2803 1.5813 41.4211C2.09262 42.4247 2.90852 43.2405 3.91205 43.7519C5.05291 44.3332 6.54639 44.3332 9.53333 44.3332H25M25 25.6665H27.1271C28.3135 25.6665 28.9067 25.6665 29.4706 25.79C29.9708 25.8996 30.4526 26.0806 30.9012 26.3276C31.407 26.6059 31.8534 26.9966 32.7463 27.7778L48.6397 41.6846C50.2779 43.118 50.3618 45.6381 48.8226 47.1772C47.4218 48.578 45.1749 48.6528 43.684 47.3483L27.9141 33.5497C26.8417 32.6114 26.3056 32.1422 25.9207 31.5752C25.5796 31.0727 25.3268 30.5157 25.1733 29.9281C25 29.265 25 28.5526 25 27.1277V25.6665Z" stroke="url(#paint0_linear_166_17024)" stroke-width="2" stroke-linecap="round" stroke-linejoin="round"/>
<defs>
<linearGradient id="paint0_linear_166_17024" x1="1" y1="24.9729" x2="49.9248" y2="24.9729" gradientUnits="userSpaceOnUse">
<stop stop-color="#445DF4"/>
<stop offset="1" stop-color="#DA5870"/>
</linearGradient>
</defs>
</svg>
