<svg width="50" height="45" viewBox="0 0 50 45" fill="none" xmlns="http://www.w3.org/2000/svg">
<path d="M41 11.8332V9.69984C41 6.71289 41 5.21942 40.4187 4.07855C39.9074 3.07502 39.0915 2.25913 38.088 1.7478C36.9471 1.1665 35.4536 1.1665 32.4667 1.1665H9.53333C6.54639 1.1665 5.05291 1.1665 3.91205 1.7478C2.90852 2.25913 2.09262 3.07502 1.5813 4.07855C1 5.21942 1 6.71289 1 9.69984V11.8332M49 22.4998H43.6667C40.7211 22.4998 38.3333 24.8877 38.3333 27.8332C38.3333 30.7787 40.7211 33.1665 43.6667 33.1665H49M1 11.8332V35.2998C1 38.2868 1 39.7803 1.5813 40.9211C2.09262 41.9246 2.90852 42.7405 3.91205 43.2519C5.05291 43.8332 6.54639 43.8332 9.53333 43.8332H40.4667C43.4536 43.8332 44.9471 43.8332 46.088 43.2519C47.0915 42.7405 47.9074 41.9246 48.4187 40.9211C49 39.7803 49 38.2868 49 35.2998V20.3665C49 17.3796 49 15.8861 48.4187 14.7452C47.9074 13.7417 47.0915 12.9258 46.088 12.4145C44.9471 11.8332 43.4536 11.8332 40.4667 11.8332H1Z" stroke="url(#paint0_linear_241_66)" stroke-width="2" stroke-linecap="round" stroke-linejoin="round"/>
<defs>
<linearGradient id="paint0_linear_241_66" x1="1" y1="22.4998" x2="49" y2="22.4998" gradientUnits="userSpaceOnUse">
<stop stop-color="#445DF4"/>
<stop offset="1" stop-color="#DA5870"/>
</linearGradient>
</defs>
</svg>
