<svg width="24" height="50" viewBox="0 0 24 50" fill="none" xmlns="http://www.w3.org/2000/svg">
<path d="M11.9997 35.6662C10.5269 35.6662 9.33301 36.8601 9.33301 38.3329C9.33301 39.8056 10.5269 40.9995 11.9997 40.9995C13.4724 40.9995 14.6663 39.8056 14.6663 38.3329C14.6663 36.8601 13.4724 35.6662 11.9997 35.6662ZM11.9997 35.6662L12.0185 25M11.9997 38.3329L12.0185 38.3517M22.6663 38.3329C22.6663 44.2239 17.8907 48.9995 11.9997 48.9995C6.10864 48.9995 1.33301 44.2239 1.33301 38.3329C1.33301 35.6277 2.34004 33.1577 3.99967 31.2773L3.99967 9C3.99967 4.58172 7.5814 1 11.9997 1C16.418 1 19.9997 4.58172 19.9997 9V31.2773C21.6593 33.1577 22.6663 35.6277 22.6663 38.3329Z" stroke="url(#paint0_linear_166_17045)" stroke-width="2" stroke-linecap="round" stroke-linejoin="round"/>
<defs>
<linearGradient id="paint0_linear_166_17045" x1="1.33301" y1="24.9998" x2="22.6663" y2="24.9998" gradientUnits="userSpaceOnUse">
<stop stop-color="#445DF4"/>
<stop offset="1" stop-color="#DA5870"/>
</linearGradient>
</defs>
</svg>
