<svg width="50" height="50" viewBox="0 0 50 50" fill="none" xmlns="http://www.w3.org/2000/svg">
<path d="M23.6667 21.8332L19.6667 29.8332H30.3333L26.3333 37.8332M43.6667 18.5748V35.6999C43.6667 40.1803 43.6667 42.4205 42.7947 44.1318C42.0277 45.6371 40.8039 46.8609 39.2986 47.6279C37.5873 48.4999 35.3471 48.4999 30.8667 48.4999H19.1333C14.6529 48.4999 12.4127 48.4999 10.7014 47.6279C9.19611 46.8609 7.97227 45.6371 7.20528 44.1318C6.33333 42.4205 6.33333 40.1803 6.33333 35.6999V18.5731M49 24.4999L34.5114 8.40381C31.2163 4.7431 29.5687 2.91275 27.6284 2.23702C25.9241 1.64352 24.0693 1.64365 22.3652 2.23741C20.4249 2.91342 18.7776 4.74402 15.4831 8.40521L1 24.4999" stroke="url(#paint0_linear_241_89)" stroke-width="2" stroke-linecap="round" stroke-linejoin="round"/>
<defs>
<linearGradient id="paint0_linear_241_89" x1="1" y1="25.1459" x2="49" y2="25.1459" gradientUnits="userSpaceOnUse">
<stop stop-color="#445DF4"/>
<stop offset="1" stop-color="#DA5870"/>
</linearGradient>
</defs>
</svg>
