<svg width="45" height="46" viewBox="0 0 45 46" fill="none" xmlns="http://www.w3.org/2000/svg">
<path d="M35.8337 28.3337V44.3337M27.8337 36.3337H43.8337M32.1003 17.667H39.567C41.0605 17.667 41.8072 17.667 42.3776 17.3763C42.8794 17.1207 43.2873 16.7127 43.543 16.211C43.8337 15.6405 43.8337 14.8938 43.8337 13.4003V5.93366C43.8337 4.44019 43.8337 3.69345 43.543 3.12302C43.2873 2.62125 42.8794 2.2133 42.3776 1.95764C41.8072 1.66699 41.0605 1.66699 39.567 1.66699H32.1003C30.6069 1.66699 29.8601 1.66699 29.2897 1.95764C28.7879 2.2133 28.38 2.62125 28.1243 3.12302C27.8337 3.69345 27.8337 4.44019 27.8337 5.93366V13.4003C27.8337 14.8938 27.8337 15.6405 28.1243 16.211C28.38 16.7127 28.7879 17.1207 29.2897 17.3763C29.8601 17.667 30.6069 17.667 32.1003 17.667ZM5.43366 17.667H12.9003C14.3938 17.667 15.1405 17.667 15.711 17.3763C16.2127 17.1207 16.6207 16.7127 16.8763 16.211C17.167 15.6405 17.167 14.8938 17.167 13.4003V5.93366C17.167 4.44019 17.167 3.69345 16.8763 3.12302C16.6207 2.62125 16.2127 2.2133 15.711 1.95764C15.1405 1.66699 14.3938 1.66699 12.9003 1.66699H5.43366C3.94019 1.66699 3.19345 1.66699 2.62302 1.95764C2.12125 2.2133 1.7133 2.62125 1.45764 3.12302C1.16699 3.69345 1.16699 4.44019 1.16699 5.93366V13.4003C1.16699 14.8938 1.16699 15.6405 1.45764 16.211C1.7133 16.7127 2.12125 17.1207 2.62302 17.3763C3.19345 17.667 3.94019 17.667 5.43366 17.667ZM5.43366 44.3337H12.9003C14.3938 44.3337 15.1405 44.3337 15.711 44.043C16.2127 43.7873 16.6207 43.3794 16.8763 42.8776C17.167 42.3072 17.167 41.5605 17.167 40.067V32.6003C17.167 31.1069 17.167 30.3601 16.8763 29.7897C16.6207 29.2879 16.2127 28.88 15.711 28.6243C15.1405 28.3337 14.3938 28.3337 12.9003 28.3337H5.43366C3.94019 28.3337 3.19345 28.3337 2.62302 28.6243C2.12125 28.88 1.7133 29.2879 1.45764 29.7897C1.16699 30.3601 1.16699 31.1069 1.16699 32.6003V40.067C1.16699 41.5605 1.16699 42.3072 1.45764 42.8776C1.7133 43.3794 2.12125 43.7873 2.62302 44.043C3.19345 44.3337 3.94019 44.3337 5.43366 44.3337Z" stroke="url(#paint0_linear_166_17056)" stroke-width="2" stroke-linecap="round" stroke-linejoin="round"/>
<defs>
<linearGradient id="paint0_linear_166_17056" x1="1.16699" y1="23.0003" x2="43.8337" y2="23.0003" gradientUnits="userSpaceOnUse">
<stop stop-color="#445DF4"/>
<stop offset="1" stop-color="#DA5870"/>
</linearGradient>
</defs>
</svg>
