<svg width="50" height="34" viewBox="0 0 50 34" fill="none" xmlns="http://www.w3.org/2000/svg">
<path d="M22.3333 9L18.3333 17H29L25 25M49 19.6667V14.3333M9.53333 33H37.8C40.7869 33 42.2804 33 43.4213 32.4187C44.4248 31.9074 45.2407 31.0915 45.752 30.0879C46.3333 28.9471 46.3333 27.4536 46.3333 24.4667V9.53333C46.3333 6.54639 46.3333 5.05291 45.752 3.91205C45.2407 2.90852 44.4248 2.09262 43.4213 1.5813C42.2804 1 40.7869 1 37.8 1H9.53333C6.54639 1 5.05291 1 3.91205 1.5813C2.90852 2.09262 2.09262 2.90852 1.5813 3.91205C1 5.05291 1 6.54639 1 9.53333V24.4667C1 27.4536 1 28.9471 1.5813 30.0879C2.09262 31.0915 2.90852 31.9074 3.91205 32.4187C5.05291 33 6.54639 33 9.53333 33Z" stroke="url(#paint0_linear_166_17044)" stroke-width="2" stroke-linecap="round" stroke-linejoin="round"/>
<defs>
<linearGradient id="paint0_linear_166_17044" x1="1" y1="17" x2="49" y2="17" gradientUnits="userSpaceOnUse">
<stop stop-color="#445DF4"/>
<stop offset="1" stop-color="#DA5870"/>
</linearGradient>
</defs>
</svg>
