<svg width="50" height="50" viewBox="0 0 50 50" fill="none" xmlns="http://www.w3.org/2000/svg">
<path d="M29.8 20.2H29.816M20.201 20.1997H20.217M18.599 28.1992C18.599 28.1992 20.999 31.3992 24.999 31.3992C28.999 31.3992 31.399 28.1992 31.399 28.1992M38.3333 1H43.6667C46.6122 1 49 3.38781 49 6.33333V11.6667M49 38.3333V43.6667C49 46.6122 46.6122 49 43.6667 49H38.3333M11.6667 49H6.33333C3.38781 49 1 46.6122 1 43.6667V38.3333M1 11.6667V6.33333C1 3.38781 3.38781 1 6.33333 1H11.6667M30.6 20.2C30.6 20.6418 30.2418 21 29.8 21C29.3582 21 29 20.6418 29 20.2C29 19.7582 29.3582 19.4 29.8 19.4C30.2418 19.4 30.6 19.7582 30.6 20.2ZM21.001 20.1997C21.001 20.6416 20.6429 20.9997 20.201 20.9997C19.7592 20.9997 19.401 20.6416 19.401 20.1997C19.401 19.7579 19.7592 19.3997 20.201 19.3997C20.6429 19.3997 21.001 19.7579 21.001 20.1997ZM41 25C41 33.8366 33.8366 41 25 41C16.1634 41 9 33.8366 9 25C9 16.1634 16.1634 9 25 9C33.8366 9 41 16.1634 41 25Z" stroke="url(#paint0_linear_166_17029)" stroke-width="2" stroke-linecap="round" stroke-linejoin="round"/>
<defs>
<linearGradient id="paint0_linear_166_17029" x1="1" y1="25" x2="49" y2="25" gradientUnits="userSpaceOnUse">
<stop stop-color="#445DF4"/>
<stop offset="1" stop-color="#DA5870"/>
</linearGradient>
</defs>
</svg>
