<svg width="46" height="46" viewBox="0 0 46 46" fill="none" xmlns="http://www.w3.org/2000/svg">
<path d="M1.66699 23H1.69366M12.3337 23H12.3603M33.667 23H33.6937M23.0003 23H23.027M44.3337 23H44.3603M13.667 1.66669H10.2003C7.21338 1.66669 5.7199 1.66669 4.57904 2.24799C3.57551 2.75931 2.75962 3.57521 2.24829 4.57874C1.66699 5.7196 1.66699 7.21307 1.66699 10.2V13.6667M32.3337 1.66669H35.8003C38.7873 1.66669 40.2807 1.66669 41.4216 2.24799C42.4251 2.75931 43.241 3.57521 43.7524 4.57874C44.3337 5.7196 44.3337 7.21307 44.3337 10.2V13.6667M44.3337 32.3334V35.8C44.3337 38.787 44.3337 40.2804 43.7524 41.4213C43.241 42.4248 42.4251 43.2407 41.4216 43.7521C40.2807 44.3334 38.7873 44.3334 35.8003 44.3334H32.3337M1.66699 32.3334V35.8C1.66699 38.787 1.66699 40.2804 2.24829 41.4213C2.75962 42.4248 3.57551 43.2407 4.57904 43.7521C5.7199 44.3334 7.21338 44.3334 10.2003 44.3334H13.667" stroke="url(#paint0_linear_166_17010)" stroke-width="2" stroke-linecap="round" stroke-linejoin="round"/>
<defs>
<linearGradient id="paint0_linear_166_17010" x1="1.66699" y1="23" x2="44.3603" y2="23" gradientUnits="userSpaceOnUse">
<stop stop-color="#445DF4"/>
<stop offset="1" stop-color="#DA5870"/>
</linearGradient>
</defs>
</svg>
