<svg width="49" height="46" viewBox="0 0 49 46" fill="none" xmlns="http://www.w3.org/2000/svg">
<path d="M1.11328 33.6056V44.2723M1.11328 38.939H8.79146C9.86815 38.939 10.4065 38.939 10.868 38.7618C11.2757 38.6052 11.6386 38.351 11.9251 38.0214C12.2493 37.6482 12.4333 37.1423 12.8012 36.1304L17.1133 24.2723M35.7799 29.6056L40.4111 31.9212C41.6038 32.5175 42.2002 32.8157 42.7877 32.8332C43.3054 32.8486 43.8164 32.7129 44.2582 32.4427C44.7597 32.136 45.1295 31.5812 45.8692 30.4717L46.4323 29.6271C47.3588 28.2373 47.8221 27.5424 47.8771 26.8515C47.9254 26.2449 47.7648 25.6399 47.4219 25.1372C47.0313 24.5646 46.2843 24.1911 44.7903 23.4441L43.7799 22.939M3.4063 12.3414L8.39589 3.78781C9.11693 2.55174 9.47745 1.93371 9.99437 1.59086C10.4493 1.28909 10.986 1.13425 11.5318 1.14724C12.1519 1.162 12.7863 1.49297 14.055 2.15491L35.109 13.1396C37.1021 14.1795 38.0986 14.6994 38.4865 15.436C38.8254 16.0793 38.8868 16.8331 38.6566 17.5228C38.393 18.3125 37.4938 18.9869 35.6954 20.3357L27.2228 26.6901C26.4571 27.2644 26.0742 27.5516 25.6487 27.6886C25.2724 27.8096 24.8739 27.8456 24.4821 27.7937C24.039 27.7351 23.6109 27.5211 22.7547 27.093L5.18364 18.3075C3.76801 17.5997 3.0602 17.2457 2.6742 16.7011C2.33497 16.2225 2.16304 15.6454 2.18504 15.0591C2.21007 14.3921 2.60881 13.7085 3.4063 12.3414Z" stroke="url(#paint0_linear_166_17020)" stroke-width="2" stroke-linecap="round" stroke-linejoin="round"/>
<defs>
<linearGradient id="paint0_linear_166_17020" x1="1.11328" y1="22.7094" x2="47.8855" y2="22.7094" gradientUnits="userSpaceOnUse">
<stop stop-color="#445DF4"/>
<stop offset="1" stop-color="#DA5870"/>
</linearGradient>
</defs>
</svg>
