<svg width="50" height="42" viewBox="0 0 50 42" fill="none" xmlns="http://www.w3.org/2000/svg">
<path d="M1 10.3333L8.25831 16.3819C8.73755 16.7813 9.34164 17 9.96547 17H40.0345C40.6584 17 41.2625 16.7813 41.7417 16.3819L49 10.3333M10.3333 26.3333H10.36M39.6667 26.3333H39.6933M14.7617 1H35.2383C37.1522 1 38.9193 2.02553 39.8689 3.68726L47.5946 17.2072C48.5156 18.8189 49 20.6431 49 22.4994V38.3333C49 39.8061 47.8061 41 46.3333 41H43.6667C42.1939 41 41 39.8061 41 38.3333V35.6667H9V38.3333C9 39.8061 7.80609 41 6.33333 41H3.66667C2.19391 41 1 39.8061 1 38.3333V22.4994C1 20.6431 1.48443 18.8189 2.40541 17.2072L10.1311 3.68726C11.0807 2.02553 12.8478 1 14.7617 1ZM11.6667 26.3333C11.6667 27.0697 11.0697 27.6667 10.3333 27.6667C9.59695 27.6667 9 27.0697 9 26.3333C9 25.597 9.59695 25 10.3333 25C11.0697 25 11.6667 25.597 11.6667 26.3333ZM41 26.3333C41 27.0697 40.403 27.6667 39.6667 27.6667C38.9303 27.6667 38.3333 27.0697 38.3333 26.3333C38.3333 25.597 38.9303 25 39.6667 25C40.403 25 41 25.597 41 26.3333Z" stroke="url(#paint0_linear_166_17027)" stroke-width="2" stroke-linecap="round" stroke-linejoin="round"/>
<defs>
<linearGradient id="paint0_linear_166_17027" x1="1" y1="21" x2="49" y2="21" gradientUnits="userSpaceOnUse">
<stop stop-color="#445DF4"/>
<stop offset="1" stop-color="#DA5870"/>
</linearGradient>
</defs>
</svg>
