<svg width="50" height="46" viewBox="0 0 50 46" fill="none" xmlns="http://www.w3.org/2000/svg">
<path d="M1.61328 33.6058V44.2725M1.61328 38.9391H9.29146C10.3682 38.9391 10.9065 38.9391 11.368 38.7619C11.7757 38.6054 12.1386 38.3512 12.4251 38.0215C12.7493 37.6484 12.9333 37.1424 13.3012 36.1306L17.6133 24.2725M36.2799 29.6058L40.9111 31.9214C42.1038 32.5177 42.7002 32.8159 43.2877 32.8334C43.8054 32.8488 44.3164 32.7131 44.7582 32.4429C45.2597 32.1362 45.6295 31.5814 46.3692 30.4719L46.9323 29.6273C47.8588 28.2375 48.3221 27.5426 48.3771 26.8517C48.4254 26.245 48.2648 25.6401 47.9219 25.1374C47.5313 24.5648 46.7843 24.1913 45.2903 23.4443L44.2799 22.9391M3.9063 12.3416L8.89589 3.788C9.61693 2.55193 9.97745 1.93389 10.4944 1.59104C10.9493 1.28927 11.486 1.13443 12.0318 1.14742C12.6519 1.16219 13.2863 1.49315 14.555 2.15509L35.609 13.1398C37.6021 14.1797 38.5986 14.6996 38.9865 15.4362C39.3254 16.0795 39.3868 16.8333 39.1566 17.523C38.893 18.3126 37.9938 18.9871 36.1954 20.3359L27.7228 26.6903C26.9571 27.2646 26.5742 27.5518 26.1487 27.6887C25.7724 27.8098 25.3739 27.8458 24.9821 27.7939C24.539 27.7353 24.1109 27.5213 23.2547 27.0932L5.68364 18.3077C4.26801 17.5998 3.5602 17.2459 3.1742 16.7013C2.83497 16.2227 2.66304 15.6456 2.68504 15.0593C2.71007 14.3923 3.10881 13.7087 3.9063 12.3416Z" stroke="url(#paint0_linear_166_17028)" stroke-width="2" stroke-linecap="round" stroke-linejoin="round"/>
<defs>
<linearGradient id="paint0_linear_166_17028" x1="1.61328" y1="22.7096" x2="48.3855" y2="22.7096" gradientUnits="userSpaceOnUse">
<stop stop-color="#445DF4"/>
<stop offset="1" stop-color="#DA5870"/>
</linearGradient>
</defs>
</svg>
