<svg width="46" height="50" viewBox="0 0 46 50" fill="none" xmlns="http://www.w3.org/2000/svg">
<path d="M35.2242 9C33.1667 4.29092 28.4678 1 23.0003 1C15.6365 1 9.66699 6.96954 9.66699 14.3333V19.7434M23.0003 31.6667V37M9.66699 19.7434C10.9241 19.6667 12.4739 19.6667 14.467 19.6667H31.5337C36.0141 19.6667 38.2543 19.6667 39.9656 20.5386C41.4709 21.3056 42.6947 22.5294 43.4617 24.0347C44.3337 25.746 44.3337 27.9862 44.3337 32.4667V36.2C44.3337 40.6804 44.3337 42.9206 43.4617 44.6319C42.6947 46.1372 41.4709 47.3611 39.9656 48.1281C38.2543 49 36.0141 49 31.5337 49H14.467C9.98657 49 7.74636 49 6.03507 48.1281C4.52977 47.3611 3.30593 46.1372 2.53894 44.6319C1.66699 42.9206 1.66699 40.6804 1.66699 36.2V32.4667C1.66699 27.9862 1.66699 25.746 2.53894 24.0347C3.30593 22.5294 4.52977 21.3056 6.03507 20.5386C6.9851 20.0545 8.09814 19.8392 9.66699 19.7434Z" stroke="url(#paint0_linear_166_17026)" stroke-width="2" stroke-linecap="round" stroke-linejoin="round"/>
<defs>
<linearGradient id="paint0_linear_166_17026" x1="1.66699" y1="25" x2="44.3337" y2="25" gradientUnits="userSpaceOnUse">
<stop stop-color="#445DF4"/>
<stop offset="1" stop-color="#DA5870"/>
</linearGradient>
</defs>
</svg>
