<svg width="24" height="50" viewBox="0 0 24 50" fill="none" xmlns="http://www.w3.org/2000/svg">
<path d="M11.9999 35.6662C10.5272 35.6662 9.33325 36.8601 9.33325 38.3329C9.33325 39.8056 10.5272 40.9995 11.9999 40.9995C13.4727 40.9995 14.6666 39.8056 14.6666 38.3329C14.6666 36.8601 13.4727 35.6662 11.9999 35.6662ZM11.9999 35.6662L12.0188 25M11.9999 38.3329L12.0188 38.3517M22.6666 38.3329C22.6666 44.2239 17.891 48.9995 11.9999 48.9995C6.10888 48.9995 1.33325 44.2239 1.33325 38.3329C1.33325 35.6277 2.34028 33.1577 3.99992 31.2773L3.99992 9C3.99992 4.58172 7.58164 1 11.9999 1C16.4182 1 19.9999 4.58172 19.9999 9V31.2773C21.6596 33.1577 22.6666 35.6277 22.6666 38.3329Z" stroke="url(#paint0_linear_241_12)" stroke-width="2" stroke-linecap="round" stroke-linejoin="round"/>
<defs>
<linearGradient id="paint0_linear_241_12" x1="1.33325" y1="24.9998" x2="22.6666" y2="24.9998" gradientUnits="userSpaceOnUse">
<stop stop-color="#445DF4"/>
<stop offset="1" stop-color="#DA5870"/>
</linearGradient>
</defs>
</svg>
