<svg width="43" height="45" viewBox="0 0 43 45" fill="none" xmlns="http://www.w3.org/2000/svg">
<path d="M8.37826 38.4391C8.42018 38.3685 8.46314 38.2983 8.50711 38.2284C11.7142 33.1301 13.5708 27.1008 13.5708 20.609C13.5708 15.3782 17.8112 11.1379 23.0419 11.1379C28.2727 11.1379 32.513 15.3782 32.513 20.609C32.513 23.0171 32.3491 25.3885 32.0317 27.7123M27.0182 43.9164C28.4665 41.0254 29.654 37.981 30.5497 34.8156M39.6397 37.4955C41.167 32.1295 41.9846 26.4646 41.9846 20.6087C41.9846 10.1472 33.5039 1.6665 23.0424 1.6665C19.5922 1.6665 16.3574 2.58893 13.5713 4.20063M1.73242 30.942C3.24936 27.8194 4.1002 24.3134 4.1002 20.6087C4.1002 17.1585 5.02263 13.9237 6.63432 11.1376M23.0421 20.6092C23.0421 28.9371 20.6535 36.7072 16.5241 43.2717" stroke="url(#paint0_linear_166_17025)" stroke-width="2" stroke-linecap="round" stroke-linejoin="round"/>
<defs>
<linearGradient id="paint0_linear_166_17025" x1="1.73242" y1="22.7915" x2="41.9846" y2="22.7915" gradientUnits="userSpaceOnUse">
<stop stop-color="#445DF4"/>
<stop offset="1" stop-color="#DA5870"/>
</linearGradient>
</defs>
</svg>
