<svg width="50" height="50" viewBox="0 0 50 50" fill="none" xmlns="http://www.w3.org/2000/svg">
<path d="M33 22.7778C33 22.7778 32.1843 22.7778 32.0001 22.7778C29.2681 22.7778 26.8871 21.6732 24.9999 19.6667C23.1128 21.6731 20.732 22.7778 18.0001 22.7778C17.8159 22.7778 17.0001 22.7778 17.0001 22.7778C17.0001 22.7778 17 24.8519 17 26.0612C17 31.9655 20.3994 36.9267 25 38.3333C29.6006 36.9267 33 31.9655 33 26.0612C33 24.8519 33 22.7778 33 22.7778Z" stroke="url(#paint0_linear_166_17032)" stroke-width="2" stroke-linecap="round" stroke-linejoin="round"/>
<path d="M1 25.347V31.9333C1 37.9072 1 40.8942 2.1626 43.1759C3.18525 45.183 4.81704 46.8148 6.8241 47.8374C9.10583 49 12.0928 49 18.0667 49H31.9333C37.9072 49 40.8942 49 43.1759 47.8374C45.183 46.8148 46.8148 45.183 47.8374 43.1759C49 40.8942 49 37.9072 49 31.9333V25.347C49 22.2838 49 20.7522 48.6052 19.3417C48.2555 18.0923 47.6807 16.9171 46.9092 15.874C46.0382 14.6964 44.8292 13.7561 42.4113 11.8754L35.4779 6.48284C31.7305 3.56815 29.8567 2.11079 27.7877 1.55059C25.9621 1.0563 24.0379 1.0563 22.2123 1.55059C20.1433 2.11079 18.2696 3.56814 14.5221 6.48284L7.58875 11.8754C5.17078 13.7561 3.9618 14.6964 3.09081 15.874C2.31928 16.9171 1.74454 18.0923 1.39481 19.3417C1 20.7522 1 22.2838 1 25.347Z" stroke="url(#paint1_linear_166_17032)" stroke-width="2" stroke-linecap="round" stroke-linejoin="round"/>
<defs>
<linearGradient id="paint0_linear_166_17032" x1="1" y1="25.0899" x2="49" y2="25.0899" gradientUnits="userSpaceOnUse">
<stop stop-color="#445DF4"/>
<stop offset="1" stop-color="#DA5870"/>
</linearGradient>
<linearGradient id="paint1_linear_166_17032" x1="1" y1="25.0899" x2="49" y2="25.0899" gradientUnits="userSpaceOnUse">
<stop stop-color="#445DF4"/>
<stop offset="1" stop-color="#DA5870"/>
</linearGradient>
</defs>
</svg>
