<svg width="46" height="50" viewBox="0 0 46 50" fill="none" xmlns="http://www.w3.org/2000/svg">
<path d="M21.2899 48.1544C21.8375 48.4397 22.1113 48.5824 22.4911 48.6563C22.787 48.7139 23.2137 48.7139 23.5095 48.6563C23.8894 48.5824 24.1632 48.4397 24.7108 48.1544C29.7738 45.5165 44.3337 36.8961 44.3337 24.9998V14.9134C44.3337 12.7814 44.3337 11.7154 43.985 10.799C43.6769 9.98953 43.1764 9.26722 42.5266 8.69456C41.791 8.04632 40.7929 7.67202 38.7966 6.92341L24.4984 1.56161C23.9441 1.35372 23.6669 1.24977 23.3817 1.20856C23.1288 1.17201 22.8719 1.17201 22.6189 1.20856C22.3338 1.24977 22.0566 1.35372 21.5022 1.56162L7.20407 6.92341C5.20779 7.67202 4.20965 8.04632 3.47408 8.69456C2.82428 9.26722 2.32372 9.98953 2.01569 10.799C1.66699 11.7154 1.66699 12.7814 1.66699 14.9134V24.9998C1.66699 36.8961 16.2269 45.5165 21.2899 48.1544Z" stroke="url(#paint0_linear_166_17030)" stroke-width="2" stroke-linecap="round" stroke-linejoin="round"/>
<defs>
<linearGradient id="paint0_linear_166_17030" x1="1.66699" y1="24.9403" x2="44.3337" y2="24.9403" gradientUnits="userSpaceOnUse">
<stop stop-color="#445DF4"/>
<stop offset="1" stop-color="#DA5870"/>
</linearGradient>
</defs>
</svg>
