<svg width="46" height="46" viewBox="0 0 46 46" fill="none" xmlns="http://www.w3.org/2000/svg">
<path d="M1.66699 22.9998H1.69366M12.3337 22.9998H12.3603M33.667 22.9998H33.6937M23.0003 22.9998H23.027M44.3337 22.9998H44.3603M13.667 1.6665H10.2003C7.21338 1.6665 5.7199 1.6665 4.57904 2.2478C3.57551 2.75913 2.75962 3.57502 2.24829 4.57855C1.66699 5.71942 1.66699 7.21289 1.66699 10.1998V13.6665M32.3337 1.6665H35.8003C38.7873 1.6665 40.2807 1.6665 41.4216 2.2478C42.4251 2.75913 43.241 3.57502 43.7524 4.57855C44.3337 5.71942 44.3337 7.21289 44.3337 10.1998V13.6665M44.3337 32.3332V35.7998C44.3337 38.7868 44.3337 40.2803 43.7524 41.4211C43.241 42.4246 42.4251 43.2405 41.4216 43.7519C40.2807 44.3332 38.7873 44.3332 35.8003 44.3332H32.3337M1.66699 32.3332V35.7998C1.66699 38.7868 1.66699 40.2803 2.24829 41.4211C2.75962 42.4246 3.57551 43.2405 4.57904 43.7519C5.7199 44.3332 7.21338 44.3332 10.2003 44.3332H13.667" stroke="url(#paint0_linear_166_17034)" stroke-width="2" stroke-linecap="round" stroke-linejoin="round"/>
<defs>
<linearGradient id="paint0_linear_166_17034" x1="1.66699" y1="22.9998" x2="44.3603" y2="22.9998" gradientUnits="userSpaceOnUse">
<stop stop-color="#445DF4"/>
<stop offset="1" stop-color="#DA5870"/>
</linearGradient>
</defs>
</svg>
