<svg width="46" height="46" viewBox="0 0 46 46" fill="none" xmlns="http://www.w3.org/2000/svg">
<path d="M36.3334 28.3334V44.3334M28.3334 36.3334H44.3334M32.6001 17.6667H40.0667C41.5602 17.6667 42.307 17.6667 42.8774 17.3761C43.3792 17.1204 43.7871 16.7125 44.0428 16.2107C44.3334 15.6403 44.3334 14.8936 44.3334 13.4001V5.93341C44.3334 4.43994 44.3334 3.6932 44.0428 3.12277C43.7871 2.62101 43.3792 2.21306 42.8774 1.9574C42.307 1.66675 41.5602 1.66675 40.0667 1.66675H32.6001C31.1066 1.66675 30.3599 1.66675 29.7894 1.9574C29.2877 2.21306 28.8797 2.62101 28.6241 3.12277C28.3334 3.6932 28.3334 4.43994 28.3334 5.93341V13.4001C28.3334 14.8936 28.3334 15.6403 28.6241 16.2107C28.8797 16.7125 29.2877 17.1204 29.7894 17.3761C30.3599 17.6667 31.1066 17.6667 32.6001 17.6667ZM5.93341 17.6667H13.4001C14.8936 17.6667 15.6403 17.6667 16.2107 17.3761C16.7125 17.1204 17.1204 16.7125 17.3761 16.2107C17.6667 15.6403 17.6667 14.8936 17.6667 13.4001V5.93341C17.6667 4.43994 17.6667 3.6932 17.3761 3.12277C17.1204 2.62101 16.7125 2.21306 16.2107 1.9574C15.6403 1.66675 14.8936 1.66675 13.4001 1.66675H5.93341C4.43994 1.66675 3.6932 1.66675 3.12277 1.9574C2.62101 2.21306 2.21306 2.62101 1.9574 3.12277C1.66675 3.6932 1.66675 4.43994 1.66675 5.93341V13.4001C1.66675 14.8936 1.66675 15.6403 1.9574 16.2107C2.21306 16.7125 2.62101 17.1204 3.12277 17.3761C3.6932 17.6667 4.43994 17.6667 5.93341 17.6667ZM5.93341 44.3334H13.4001C14.8936 44.3334 15.6403 44.3334 16.2107 44.0428C16.7125 43.7871 17.1204 43.3792 17.3761 42.8774C17.6667 42.307 17.6667 41.5602 17.6667 40.0667V32.6001C17.6667 31.1066 17.6667 30.3599 17.3761 29.7894C17.1204 29.2877 16.7125 28.8797 16.2107 28.6241C15.6403 28.3334 14.8936 28.3334 13.4001 28.3334H5.93341C4.43994 28.3334 3.6932 28.3334 3.12277 28.6241C2.62101 28.8797 2.21306 29.2877 1.9574 29.7894C1.66675 30.3599 1.66675 31.1066 1.66675 32.6001V40.0667C1.66675 41.5602 1.66675 42.307 1.9574 42.8774C2.21306 43.3792 2.62101 43.7871 3.12277 44.0428C3.6932 44.3334 4.43994 44.3334 5.93341 44.3334Z" stroke="url(#paint0_linear_241_60)" stroke-width="2" stroke-linecap="round" stroke-linejoin="round"/>
<defs>
<linearGradient id="paint0_linear_241_60" x1="1.66675" y1="23.0001" x2="44.3334" y2="23.0001" gradientUnits="userSpaceOnUse">
<stop stop-color="#445DF4"/>
<stop offset="1" stop-color="#DA5870"/>
</linearGradient>
</defs>
</svg>
