<svg width="50" height="51" viewBox="0 0 50 51" fill="none" xmlns="http://www.w3.org/2000/svg">
<path d="M49 1.5L30.3333 17.5L19.6667 6.83333L1 22.8333M5 49.5C2.79086 49.5 1 47.7091 1 45.5V40.1667C1 37.9575 2.79086 36.1667 5 36.1667C7.20914 36.1667 9 37.9575 9 40.1667V45.5C9 47.7091 7.20914 49.5 5 49.5ZM23.6667 49.5C21.4575 49.5 19.6667 47.7091 19.6667 45.5V32.1667C19.6667 29.9575 21.4575 28.1667 23.6667 28.1667C25.8758 28.1667 27.6667 29.9575 27.6667 32.1667V45.5C27.6667 47.7091 25.8758 49.5 23.6667 49.5ZM42.3333 49.5C40.1242 49.5 38.3333 47.7091 38.3333 45.5V37.5C38.3333 35.2909 40.1242 33.5 42.3333 33.5C44.5425 33.5 46.3333 35.2909 46.3333 37.5V45.5C46.3333 47.7091 44.5425 49.5 42.3333 49.5Z" stroke="url(#paint0_linear_166_17022)" stroke-width="2" stroke-linecap="round" stroke-linejoin="round"/>
<defs>
<linearGradient id="paint0_linear_166_17022" x1="1" y1="25.5" x2="49" y2="25.5" gradientUnits="userSpaceOnUse">
<stop stop-color="#445DF4"/>
<stop offset="1" stop-color="#DA5870"/>
</linearGradient>
</defs>
</svg>
