<svg width="30" height="30" viewBox="0 0 30 30" fill="none" xmlns="http://www.w3.org/2000/svg">
<path d="M9.23992 0.919922C4.66683 0.919922 0.919922 4.66683 0.919922 9.23992V20.7599C0.919922 25.333 4.66683 29.0799 9.23992 29.0799H20.7599C25.333 29.0799 29.0799 25.333 29.0799 20.7599V9.23992C29.0799 4.66683 25.333 0.919922 20.7599 0.919922H9.23992ZM9.23992 2.19992H20.7599C24.6348 2.19992 27.7999 5.36501 27.7999 9.23992V20.7599C27.7999 24.6348 24.6348 27.7999 20.7599 27.7999H9.23992C5.36501 27.7999 2.19992 24.6348 2.19992 20.7599V9.23992C2.19992 5.36501 5.36501 2.19992 9.23992 2.19992ZM22.6799 6.03992C21.9759 6.03992 21.3999 6.61592 21.3999 7.31992C21.3999 8.02392 21.9759 8.59992 22.6799 8.59992C23.3839 8.59992 23.9599 8.02392 23.9599 7.31992C23.9599 6.61592 23.3839 6.03992 22.6799 6.03992ZM14.9999 7.95992C11.1308 7.95992 7.95992 11.1308 7.95992 14.9999C7.95992 18.869 11.1308 22.0399 14.9999 22.0399C18.869 22.0399 22.0399 18.869 22.0399 14.9999C22.0399 11.1308 18.869 7.95992 14.9999 7.95992ZM14.9999 9.23992C18.1708 9.23992 20.7599 11.829 20.7599 14.9999C20.7599 18.1708 18.1708 20.7599 14.9999 20.7599C11.829 20.7599 9.23992 18.1708 9.23992 14.9999C9.23992 11.829 11.829 9.23992 14.9999 9.23992Z" fill="white"/>
</svg>
