<svg width="26" height="22" viewBox="0 0 26 22" fill="none" xmlns="http://www.w3.org/2000/svg">
<path d="M1 5.66669L8.26656 10.5111C9.97726 11.6515 10.8326 12.2218 11.7571 12.4433C12.5741 12.6391 13.4259 12.6391 14.2429 12.4433C15.1674 12.2218 16.0227 11.6515 17.7334 10.5111L25 5.66669M5.26667 20.3334H20.7333C22.2268 20.3334 22.9735 20.3334 23.544 20.0427C24.0457 19.787 24.4537 19.3791 24.7094 18.8773C25 18.3069 25 17.5602 25 16.0667V5.93335C25 4.43988 25 3.69314 24.7094 3.12271C24.4537 2.62095 24.0457 2.213 23.544 1.95734C22.9735 1.66669 22.2268 1.66669 20.7333 1.66669H5.26667C3.77319 1.66669 3.02646 1.66669 2.45603 1.95734C1.95426 2.213 1.54631 2.62095 1.29065 3.12271C1 3.69314 1 4.43988 1 5.93335V16.0667C1 17.5602 1 18.3069 1.29065 18.8773C1.54631 19.3791 1.95426 19.787 2.45603 20.0427C3.02646 20.3334 3.77319 20.3334 5.26667 20.3334Z" stroke="url(#paint0_linear_552_210)" stroke-width="2" stroke-linecap="round" stroke-linejoin="round"/>
<defs>
<linearGradient id="paint0_linear_552_210" x1="1" y1="11" x2="25" y2="11" gradientUnits="userSpaceOnUse">
<stop stop-color="#445DF4"/>
<stop offset="1" stop-color="#DA5870"/>
</linearGradient>
</defs>
</svg>
