<svg width="66" height="58" viewBox="0 0 66 58" fill="none" xmlns="http://www.w3.org/2000/svg">
<path d="M54 11.5H54.035M43.5 11.5H43.535M54 46.5H54.035M43.5 46.5H43.535M12 22H54C57.2616 22 58.8924 22 60.1788 21.4672C61.894 20.7567 63.2567 19.394 63.9672 17.6788C64.5 16.3924 64.5 14.7616 64.5 11.5C64.5 8.23841 64.5 6.60761 63.9672 5.32122C63.2567 3.60602 61.894 2.2433 60.1788 1.53284C58.8924 1 57.2616 1 54 1H12C8.73841 1 7.10761 1 5.82122 1.53284C4.10602 2.2433 2.7433 3.60602 2.03284 5.32122C1.5 6.60761 1.5 8.23841 1.5 11.5C1.5 14.7616 1.5 16.3924 2.03284 17.6788C2.7433 19.394 4.10602 20.7567 5.82122 21.4672C7.10761 22 8.73841 22 12 22ZM12 57H54C57.2616 57 58.8924 57 60.1788 56.4672C61.894 55.7567 63.2567 54.394 63.9672 52.6788C64.5 51.3924 64.5 49.7616 64.5 46.5C64.5 43.2384 64.5 41.6076 63.9672 40.3212C63.2567 38.606 61.894 37.2433 60.1788 36.5328C58.8924 36 57.2616 36 54 36H12C8.73841 36 7.10761 36 5.82122 36.5328C4.10602 37.2433 2.7433 38.606 2.03284 40.3212C1.5 41.6076 1.5 43.2384 1.5 46.5C1.5 49.7616 1.5 51.3924 2.03284 52.6788C2.7433 54.394 4.10602 55.7567 5.82122 56.4672C7.10761 57 8.73841 57 12 57Z" stroke="url(#paint0_linear_725_387)" stroke-width="2" stroke-linecap="round" stroke-linejoin="round"/>
<defs>
<linearGradient id="paint0_linear_725_387" x1="1.5" y1="29" x2="64.5" y2="29" gradientUnits="userSpaceOnUse">
<stop stop-color="#445DF4"/>
<stop offset="1" stop-color="#DA5870"/>
</linearGradient>
</defs>
</svg>
