<svg width="73" height="73" viewBox="0 0 73 73" fill="none" xmlns="http://www.w3.org/2000/svg">
<path d="M30.4862 16.8744L43.8505 3.51005C45.2366 2.12399 45.9296 1.43096 46.7287 1.1713C47.4317 0.942899 48.1889 0.942899 48.8919 1.1713C49.691 1.43096 50.384 2.12399 51.7701 3.51005L68.5992 20.3392C69.9853 21.7253 70.6783 22.4183 70.938 23.2174C71.1664 23.9204 71.1664 24.6776 70.938 25.3805C70.6783 26.1797 69.9853 26.8727 68.5992 28.2588L55.2349 41.6231M49.0477 15.6369L46.5729 18.1118M56.4723 23.0616L53.9975 25.5364M9.44975 45.3354L3.51005 51.2751C2.12399 52.6612 1.43096 53.3542 1.1713 54.1533C0.942899 54.8563 0.942899 55.6135 1.1713 56.3165C1.43096 57.1156 2.12399 57.8087 3.51005 59.1947L12.9146 68.5992C14.3006 69.9853 14.9937 70.6783 15.7928 70.938C16.4958 71.1664 17.253 71.1664 17.9559 70.938C18.7551 70.6783 19.4481 69.9853 20.8342 68.5992L26.7739 62.6595M13.9045 49.7902L22.3191 58.2048C26.4773 62.3629 28.5564 64.442 30.9538 65.221C33.0627 65.9062 35.3343 65.9062 37.4432 65.221C39.8406 64.442 41.9197 62.3629 46.0779 58.2048L54.9874 49.2952C56.3735 47.9092 57.0665 47.2161 57.3262 46.417C57.5546 45.714 57.5546 44.9568 57.3262 44.2539C57.0665 43.4547 56.3735 42.7617 54.9874 41.3756L30.7337 17.1219C29.3476 15.7358 28.6546 15.0428 27.8554 14.7831C27.1525 14.5547 26.3953 14.5547 25.6923 14.7831C24.8932 15.0428 24.2001 15.7358 22.8141 17.1219L13.9045 26.0314C9.74634 30.1896 7.66725 32.2687 6.88828 34.6661C6.20307 36.775 6.20307 39.0466 6.88828 41.1555C7.66725 43.5529 9.74634 45.632 13.9045 49.7902Z" stroke="url(#paint0_linear_724_31271)" stroke-width="2" stroke-linecap="round" stroke-linejoin="round"/>
<defs>
<linearGradient id="paint0_linear_724_31271" x1="1" y1="36.0546" x2="71.1093" y2="36.0546" gradientUnits="userSpaceOnUse">
<stop stop-color="#445DF4"/>
<stop offset="1" stop-color="#DA5870"/>
</linearGradient>
</defs>
</svg>
