<svg width="68" height="48" viewBox="0 0 68 48" fill="none" xmlns="http://www.w3.org/2000/svg">
<path d="M24.0782 43.7769C23.239 44.5604 22.5896 45.0848 21.9259 45.468C18.6772 47.3436 14.6747 47.3436 11.4259 45.468C10.2288 44.7768 9.07801 43.626 6.77645 41.3245C4.47489 39.0229 3.3241 37.8721 2.63293 36.675C0.757285 33.4263 0.757285 29.4237 2.63293 26.175C3.3241 24.9778 4.47489 23.827 6.77645 21.5255L16.6759 11.626C18.9775 9.32441 20.1283 8.17363 21.3254 7.48246C24.5741 5.60681 28.5767 5.60681 31.8254 7.48246C33.0226 8.17363 34.1734 9.32441 36.4749 11.626C38.7765 13.9275 39.9273 15.0783 40.6185 16.2755C42.4941 19.5242 42.4941 23.5268 40.6185 26.7755C40.2353 27.4391 39.7109 28.0886 38.9274 28.9277M29.0727 19.073C28.2893 19.9121 27.7648 20.5615 27.3817 21.2252C25.506 24.4739 25.506 28.4765 27.3817 31.7252C28.0728 32.9224 29.2236 34.0732 31.5252 36.3747C33.8267 38.6763 34.9775 39.8271 36.1747 40.5182C39.4234 42.3939 43.426 42.3939 46.6747 40.5182C47.8718 39.8271 49.0226 38.6763 51.3242 36.3747L61.2237 26.4752C63.5252 24.1737 64.676 23.0229 65.3672 21.8257C67.2428 18.577 67.2428 14.5744 65.3672 11.3257C64.676 10.1286 63.5252 8.97779 61.2237 6.67623C58.9221 4.37467 57.7713 3.22389 56.5742 2.53271C53.3255 0.657065 49.3229 0.657066 46.0742 2.53271C45.4105 2.91588 44.7611 3.4403 43.9219 4.22374" stroke="url(#paint0_linear_724_31289)" stroke-width="2" stroke-linecap="round" stroke-linejoin="round"/>
<defs>
<linearGradient id="paint0_linear_724_31289" x1="1.2262" y1="24.0003" x2="66.7739" y2="24.0003" gradientUnits="userSpaceOnUse">
<stop stop-color="#445DF4"/>
<stop offset="1" stop-color="#DA5870"/>
</linearGradient>
</defs>
</svg>
