<svg width="66" height="66" viewBox="0 0 66 66" fill="none" xmlns="http://www.w3.org/2000/svg">
<path d="M1.5 33H64.5M33 19V33M13.75 33V47M52.25 33V47M26.35 19H39.65C41.6102 19 42.5903 19 43.339 18.6185C43.9975 18.283 44.533 17.7475 44.8685 17.089C45.25 16.3403 45.25 15.3602 45.25 13.4V7.1C45.25 5.13982 45.25 4.15972 44.8685 3.41103C44.533 2.75247 43.9975 2.21703 43.339 1.88148C42.5903 1.5 41.6102 1.5 39.65 1.5H26.35C24.3898 1.5 23.4097 1.5 22.661 1.88148C22.0025 2.21703 21.467 2.75247 21.1315 3.41103C20.75 4.15972 20.75 5.13982 20.75 7.1V13.4C20.75 15.3602 20.75 16.3403 21.1315 17.089C21.467 17.7475 22.0025 18.283 22.661 18.6185C23.4097 19 24.3898 19 26.35 19ZM45.6 64.5H58.9C60.8602 64.5 61.8403 64.5 62.589 64.1185C63.2475 63.783 63.783 63.2475 64.1185 62.589C64.5 61.8403 64.5 60.8602 64.5 58.9V52.6C64.5 50.6398 64.5 49.6597 64.1185 48.911C63.783 48.2525 63.2475 47.717 62.589 47.3815C61.8403 47 60.8602 47 58.9 47H45.6C43.6398 47 42.6597 47 41.911 47.3815C41.2525 47.717 40.717 48.2525 40.3815 48.911C40 49.6597 40 50.6398 40 52.6V58.9C40 60.8602 40 61.8403 40.3815 62.589C40.717 63.2475 41.2525 63.783 41.911 64.1185C42.6597 64.5 43.6398 64.5 45.6 64.5ZM7.1 64.5H20.4C22.3602 64.5 23.3403 64.5 24.089 64.1185C24.7475 63.783 25.283 63.2475 25.6185 62.589C26 61.8403 26 60.8602 26 58.9V52.6C26 50.6398 26 49.6597 25.6185 48.911C25.283 48.2525 24.7475 47.717 24.089 47.3815C23.3403 47 22.3602 47 20.4 47H7.1C5.13982 47 4.15972 47 3.41103 47.3815C2.75247 47.717 2.21703 48.2525 1.88148 48.911C1.5 49.6597 1.5 50.6398 1.5 52.6V58.9C1.5 60.8602 1.5 61.8403 1.88148 62.589C2.21703 63.2475 2.75247 63.783 3.41103 64.1185C4.15972 64.5 5.13982 64.5 7.1 64.5Z" stroke="url(#paint0_linear_724_31283)" stroke-width="2" stroke-linecap="round" stroke-linejoin="round"/>
<defs>
<linearGradient id="paint0_linear_724_31283" x1="1.5" y1="33" x2="64.5" y2="33" gradientUnits="userSpaceOnUse">
<stop stop-color="#445DF4"/>
<stop offset="1" stop-color="#DA5870"/>
</linearGradient>
</defs>
</svg>
