<svg width="26" height="26" viewBox="0 0 26 26" fill="none" xmlns="http://www.w3.org/2000/svg">
<path d="M8.33333 13.6667L10.3452 15.6785C10.8035 16.1369 11.0327 16.366 11.2931 16.4429C11.5218 16.5104 11.7666 16.4993 11.9883 16.4113C12.2406 16.3112 12.4481 16.0623 12.8631 15.5643L18.3333 9M18.7717 3.34474C19.7567 3.37284 20.7334 3.76282 21.4853 4.51467C22.2371 5.26652 22.6271 6.2432 22.6552 7.22828C22.683 8.20309 22.6969 8.6905 22.7256 8.80394C22.7868 9.0468 22.7156 8.875 22.8441 9.09003C22.904 9.19048 23.2389 9.54502 23.9085 10.2539C24.5851 10.9704 25 11.9367 25 13C25 14.0633 24.5851 15.0296 23.9085 15.7461C23.2389 16.455 22.904 16.8095 22.8441 16.91C22.7156 17.125 22.7868 16.9532 22.7256 17.1961C22.6969 17.3095 22.683 17.7969 22.6552 18.7717C22.6271 19.7568 22.2371 20.7335 21.4853 21.4853C20.7334 22.2372 19.7567 22.6272 18.7717 22.6553C17.7969 22.6831 17.3095 22.697 17.196 22.7256C16.9532 22.7868 17.125 22.7157 16.9099 22.8441C16.8095 22.9041 16.455 23.2389 15.7461 23.9085C15.0296 24.5851 14.0633 25 13 25C11.9368 25 10.9704 24.5852 10.254 23.9085C9.54498 23.2389 9.19049 22.9041 9.09004 22.8441C8.87501 22.7157 9.04681 22.7868 8.80395 22.7256C8.69051 22.697 8.203 22.6831 7.22828 22.6553C6.24318 22.6272 5.26648 22.2372 4.51463 21.4853C3.76277 20.7335 3.37279 19.7568 3.34469 18.7717C3.31688 17.7969 3.30298 17.3095 3.27437 17.196C3.21314 16.9532 3.28429 17.125 3.15588 16.9099C3.09589 16.8095 2.76109 16.455 2.09149 15.746C1.41484 15.0296 1 14.0632 1 13C1 11.9368 1.41484 10.9704 2.09149 10.254C2.76109 9.54501 3.09589 9.19052 3.15588 9.09007C3.28429 8.87505 3.21314 9.04683 3.27437 8.80398C3.30298 8.69054 3.31688 8.20313 3.34469 7.22834C3.37279 6.24323 3.76277 5.26653 4.51463 4.51467C5.26648 3.76282 6.24317 3.37284 7.22827 3.34474C8.20309 3.31693 8.6905 3.30302 8.80395 3.27441C9.0468 3.21317 8.87501 3.28433 9.09004 3.15592C9.19049 3.09593 9.54501 2.76109 10.254 2.0915C10.9704 1.41484 11.9368 1 13 1C14.0633 1 15.0296 1.41485 15.7461 2.09152C16.455 2.76112 16.8095 3.09592 16.9099 3.15591C17.125 3.28432 16.9532 3.21317 17.196 3.27441C17.3095 3.30302 17.7969 3.31692 18.7717 3.34474Z" stroke="url(#paint0_linear_552_225)" stroke-width="2" stroke-linecap="round" stroke-linejoin="round"/>
<defs>
<linearGradient id="paint0_linear_552_225" x1="1" y1="13" x2="25" y2="13" gradientUnits="userSpaceOnUse">
<stop stop-color="#445DF4"/>
<stop offset="1" stop-color="#DA5870"/>
</linearGradient>
</defs>
</svg>
