<svg width="64" height="59" viewBox="0 0 64 59" fill="none" xmlns="http://www.w3.org/2000/svg">
<path d="M1.30469 43.6085V57.6085M1.30469 50.6085H11.3823C12.7955 50.6085 13.502 50.6085 14.1078 50.3759C14.6428 50.1705 15.1192 49.8368 15.4951 49.4041C15.9207 48.9144 16.1622 48.2503 16.6451 46.9222L22.3047 31.3585M46.8047 38.3585L52.883 41.3976C54.4485 42.1804 55.2312 42.5717 56.0024 42.5947C56.6819 42.6149 57.3525 42.4368 57.9324 42.0821C58.5906 41.6796 59.076 40.9515 60.0469 39.4952L60.7859 38.3867C62.002 36.5625 62.61 35.6505 62.6822 34.7437C62.7456 33.9475 62.5348 33.1535 62.0847 32.4937C61.5721 31.7422 60.5917 31.252 58.6308 30.2715L57.3047 29.6085M4.31428 15.6992L10.8631 4.47261C11.8095 2.85026 12.2827 2.03909 12.9611 1.5891C13.5583 1.19303 14.2626 0.989795 14.979 1.00685C15.7929 1.02623 16.6255 1.46062 18.2906 2.32941L45.9241 16.7469C48.54 18.1117 49.848 18.7941 50.3571 19.7608C50.8018 20.6052 50.8824 21.5946 50.5803 22.4998C50.2344 23.5362 49.0542 24.4214 46.6937 26.1917L35.5735 34.5319C34.5684 35.2857 34.0659 35.6626 33.5074 35.8423C33.0136 36.0013 32.4906 36.0484 31.9762 35.9804C31.3947 35.9035 30.8328 35.6225 29.7091 35.0607L6.64704 23.5297C4.78903 22.6006 3.86002 22.1361 3.3534 21.4213C2.90816 20.7931 2.68249 20.0357 2.71137 19.2662C2.74422 18.3907 3.26757 17.4935 4.31428 15.6992Z" stroke="url(#paint0_linear_725_477)" stroke-width="2" stroke-linecap="round" stroke-linejoin="round"/>
<defs>
<linearGradient id="paint0_linear_725_477" x1="1.30469" y1="29.3072" x2="62.6933" y2="29.3072" gradientUnits="userSpaceOnUse">
<stop stop-color="#445DF4"/>
<stop offset="1" stop-color="#DA5870"/>
</linearGradient>
</defs>
</svg>
