<svg width="228" height="53" viewBox="0 0 228 53" fill="none" xmlns="http://www.w3.org/2000/svg">
<rect width="227.663" height="52.7827" rx="4" fill="url(#paint0_linear_563_4486)"/>
<path d="M32.7166 17.733L29.4526 20.131C27.7207 18.2992 26.122 17.7996 24.4899 17.7996C19.6272 17.7996 16.3965 21.5299 16.3965 26.2261C16.3965 31.2554 19.6272 34.9857 24.4899 34.9857C26.3884 34.9857 28.2203 34.1198 29.7857 32.1214L33.2495 34.586C31.1179 37.517 27.9205 38.7827 24.4566 38.7827C17.1958 38.7827 12 33.8533 12 26.4926C12 18.932 17.1958 14.0026 24.4566 14.0026C27.6541 14.0026 30.3852 15.0351 32.7166 17.733Z" fill="white"/>
<path d="M33.4684 26.4926C33.4684 18.932 38.6642 14.0026 45.925 14.0026C53.2857 13.8694 58.4815 18.7988 58.4815 26.3593C58.4815 33.7201 53.2857 38.6494 45.925 38.7827C38.6642 38.7827 33.4684 33.8533 33.4684 26.4926ZM37.8648 26.2261C37.8648 31.2554 41.0956 34.9857 45.9583 34.9857C50.8544 34.9857 54.0851 31.2554 54.0851 26.2261C54.0851 21.5299 50.8544 17.7996 45.9583 17.7996C41.0956 17.7996 37.8648 21.5299 37.8648 26.2261Z" fill="white"/>
<path d="M61.1463 38.1831V14.6022H66.7085L78.1326 32.1214H78.1992V14.6022H82.3959V38.1831H77.0668L65.4096 20.0977H65.3429V38.1831H61.1463Z" fill="white"/>
<path d="M86.3226 38.1831V14.6022H91.8848L103.309 32.1214H103.376V14.6022H107.572V38.1831H102.243L90.5859 20.0977H90.5193V38.1831H86.3226Z" fill="white"/>
<path d="M111.499 38.1831V14.6022H127.12V18.3991H115.696V24.1944H126.52V27.9914H115.696V34.3862H127.719V38.1831H111.499Z" fill="white"/>
<path d="M162.388 38.1831V18.3991H155.16V14.6022H173.812V18.3991H166.584V38.1831H162.388Z" fill="white"/>
<path d="M175.351 38.1831V14.6022H190.972V18.3991H179.548V24.1944H190.372V27.9914H179.548V34.3862H191.571V38.1831H175.351Z" fill="white"/>
<path d="M194.38 38.1831V14.6022H203.673C209.868 14.6022 215.663 18.3991 215.663 26.3926C215.663 34.4528 208.835 38.1831 203.173 38.1831H194.38ZM198.577 34.3862H201.708C206.97 34.3862 211.266 32.1214 211.266 26.3926C211.266 20.6639 207.536 18.3991 202.407 18.3991H198.577V34.3862Z" fill="white"/>
<path d="M141.62 14.5822C143.434 14.5822 145.167 14.9559 146.725 15.6388L144.832 18.9181C143.847 18.4919 142.733 18.257 141.523 18.257C137.107 18.2571 133.884 21.6412 133.884 26.1857C133.884 30.8591 137.14 34.3076 141.587 34.3078C142.43 34.3078 143.23 34.1873 143.972 33.9611L146.294 37.9826H142.071C134.98 37.9824 129.629 33.502 129.629 26.089C129.629 19.385 135.109 14.5823 141.62 14.5822Z" fill="white"/>
<path d="M148.882 16.8654C151.737 18.9054 153.61 22.1713 153.61 26.089C153.61 30.8591 150.999 33.373 148.807 34.63V34.6945H155.35V37.9826H149.161L146.196 32.8468C148.151 31.4104 149.355 29.0255 149.355 26.1857C149.355 23.7789 148.451 21.6982 146.915 20.2726L148.882 16.8654Z" fill="white"/>
<defs>
<linearGradient id="paint0_linear_563_4486" x1="0" y1="26.3913" x2="227.663" y2="26.3913" gradientUnits="userSpaceOnUse">
<stop stop-color="#445DF4"/>
<stop offset="1" stop-color="#DA5870"/>
</linearGradient>
</defs>
</svg>
