<svg width="50" height="48" viewBox="0 0 50 48" fill="none" xmlns="http://www.w3.org/2000/svg">
<path d="M24.9992 33.5508V17.5508M16.9992 25.5508H32.9992M43.6659 46.8841L36.7638 40.0443M6.33253 46.8841L13.2346 40.0443M10.9796 2.65976C9.97937 1.65957 8.62282 1.09766 7.20833 1.09766C5.79385 1.09766 4.43729 1.65957 3.4371 2.65976C2.4369 3.65996 1.875 5.01651 1.875 6.431C1.875 7.84549 2.4369 9.20204 3.4371 10.2022M46.5621 10.1978C47.5623 9.19764 48.1242 7.84108 48.1242 6.4266C48.1242 5.01211 47.5623 3.65555 46.5621 2.65536C45.5619 1.65517 44.2053 1.09326 42.7909 1.09326C41.3764 1.09326 40.0198 1.65516 39.0196 2.65536M43.6659 25.5508C43.6659 35.8601 35.3085 44.2175 24.9992 44.2175C14.6899 44.2175 6.33253 35.8601 6.33253 25.5508C6.33253 15.2415 14.6899 6.88412 24.9992 6.88412C35.3085 6.88412 43.6659 15.2415 43.6659 25.5508Z" stroke="url(#paint0_linear_608_110)" stroke-width="2" stroke-linecap="round" stroke-linejoin="round"/>
<defs>
<linearGradient id="paint0_linear_608_110" x1="1.875" y1="23.9887" x2="48.1242" y2="23.9887" gradientUnits="userSpaceOnUse">
<stop stop-color="#445DF4"/>
<stop offset="1" stop-color="#DA5870"/>
</linearGradient>
</defs>
</svg>
