<svg width="50" height="50" viewBox="0 0 50 50" fill="none" xmlns="http://www.w3.org/2000/svg">
<path d="M1 17H49M11.6667 1V6.33333M38.3333 1V6.33333M9 25H14.3333M22.3333 25H27.6667M35.6667 25H41M9 33H14.3333M22.3333 33H27.6667M35.6667 33H41M9 41H14.3333M22.3333 41H27.6667M35.6667 41H41M9.53333 49H40.4667C43.4536 49 44.9471 49 46.088 48.4187C47.0915 47.9074 47.9074 47.0915 48.4187 46.088C49 44.9471 49 43.4536 49 40.4667V14.8667C49 11.8797 49 10.3862 48.4187 9.24538C47.9074 8.24185 47.0915 7.42596 46.088 6.91463C44.9471 6.33333 43.4536 6.33333 40.4667 6.33333H9.53333C6.54639 6.33333 5.05291 6.33333 3.91205 6.91463C2.90852 7.42596 2.09262 8.24185 1.5813 9.24538C1 10.3862 1 11.8797 1 14.8667V40.4667C1 43.4536 1 44.9471 1.5813 46.088C2.09262 47.0915 2.90852 47.9074 3.91205 48.4187C5.05291 49 6.54639 49 9.53333 49Z" stroke="url(#paint0_linear_608_53)" stroke-width="2" stroke-linecap="round"/>
<defs>
<linearGradient id="paint0_linear_608_53" x1="1" y1="25" x2="49" y2="25" gradientUnits="userSpaceOnUse">
<stop stop-color="#445DF4"/>
<stop offset="1" stop-color="#DA5870"/>
</linearGradient>
</defs>
</svg>
