<svg width="50" height="50" viewBox="0 0 50 50" fill="none" xmlns="http://www.w3.org/2000/svg">
<path d="M26.3333 18.3333L19.6667 27.6667H30.3333L23.6667 37M1 31.9333V25.347C1 22.2838 1 20.7522 1.39481 19.3417C1.74454 18.0923 2.31928 16.9171 3.09081 15.874C3.9618 14.6964 5.17078 13.7561 7.58875 11.8754L14.5221 6.48284C18.2696 3.56814 20.1433 2.11079 22.2123 1.55059C24.0379 1.0563 25.9621 1.0563 27.7877 1.55059C29.8567 2.11079 31.7305 3.56815 35.4779 6.48284L42.4113 11.8754C44.8292 13.7561 46.0382 14.6964 46.9092 15.874C47.6807 16.9171 48.2555 18.0923 48.6052 19.3417C49 20.7522 49 22.2838 49 25.347V31.9333C49 37.9072 49 40.8942 47.8374 43.1759C46.8148 45.183 45.183 46.8148 43.1759 47.8374C40.8942 49 37.9072 49 31.9333 49H18.0667C12.0928 49 9.10583 49 6.8241 47.8374C4.81704 46.8148 3.18525 45.183 2.1626 43.1759C1 40.8942 1 37.9072 1 31.9333Z" stroke="url(#paint0_linear_607_10)" stroke-width="2" stroke-linecap="round" stroke-linejoin="round"/>
<defs>
<linearGradient id="paint0_linear_607_10" x1="1" y1="25.0899" x2="49" y2="25.0899" gradientUnits="userSpaceOnUse">
<stop stop-color="#445DF4"/>
<stop offset="1" stop-color="#DA5870"/>
</linearGradient>
</defs>
</svg>
