<svg width="46" height="46" viewBox="0 0 46 46" fill="none" xmlns="http://www.w3.org/2000/svg">
<path d="M1.66699 23H1.69366M12.3337 23H12.3603M33.667 23H33.6937M23.0003 23H23.027M44.3337 23H44.3603M13.667 1.66663H10.2003C7.21338 1.66663 5.7199 1.66663 4.57904 2.24792C3.57551 2.75925 2.75962 3.57515 2.24829 4.57868C1.66699 5.71954 1.66699 7.21301 1.66699 10.2V13.6666M32.3337 1.66663H35.8003C38.7873 1.66663 40.2807 1.66663 41.4216 2.24792C42.4251 2.75925 43.241 3.57515 43.7524 4.57868C44.3337 5.71954 44.3337 7.21301 44.3337 10.2V13.6666M44.3337 32.3333V35.8C44.3337 38.7869 44.3337 40.2804 43.7524 41.4212C43.241 42.4248 42.4251 43.2407 41.4216 43.752C40.2807 44.3333 38.7873 44.3333 35.8003 44.3333H32.3337M1.66699 32.3333V35.8C1.66699 38.7869 1.66699 40.2804 2.24829 41.4212C2.75962 42.4248 3.57551 43.2407 4.57904 43.752C5.7199 44.3333 7.21338 44.3333 10.2003 44.3333H13.667" stroke="url(#paint0_linear_608_212)" stroke-width="2" stroke-linecap="round" stroke-linejoin="round"/>
<defs>
<linearGradient id="paint0_linear_608_212" x1="1.66699" y1="23" x2="44.3603" y2="23" gradientUnits="userSpaceOnUse">
<stop stop-color="#445DF4"/>
<stop offset="1" stop-color="#DA5870"/>
</linearGradient>
</defs>
</svg>
