<svg width="50" height="46" viewBox="0 0 50 46" fill="none" xmlns="http://www.w3.org/2000/svg">
<path d="M41 9.66669H41.0267M33 9.66669H33.0267M41 36.3334H41.0267M33 36.3334H33.0267M9 17.6667H41C43.485 17.6667 44.7275 17.6667 45.7076 17.2607C47.0145 16.7194 48.0527 15.6811 48.594 14.3743C49 13.3942 49 12.1517 49 9.66669C49 7.18166 49 5.93915 48.594 4.95904C48.0527 3.65223 47.0145 2.61396 45.7076 2.07266C44.7275 1.66669 43.485 1.66669 41 1.66669H9C6.51498 1.66669 5.27247 1.66669 4.29235 2.07266C2.98554 2.61396 1.94728 3.65223 1.40598 4.95904C1 5.93915 1 7.18166 1 9.66669C1 12.1517 1 13.3942 1.40598 14.3743C1.94728 15.6811 2.98554 16.7194 4.29235 17.2607C5.27247 17.6667 6.51498 17.6667 9 17.6667ZM9 44.3334H41C43.485 44.3334 44.7275 44.3334 45.7076 43.9274C47.0145 43.3861 48.0527 42.3478 48.594 41.041C49 40.0609 49 38.8184 49 36.3334C49 33.8483 49 32.6058 48.594 31.6257C48.0527 30.3189 47.0145 29.2806 45.7076 28.7393C44.7275 28.3334 43.485 28.3334 41 28.3334H9C6.51498 28.3334 5.27247 28.3334 4.29235 28.7393C2.98554 29.2806 1.94728 30.3189 1.40598 31.6257C1 32.6058 1 33.8483 1 36.3334C1 38.8184 1 40.0609 1.40598 41.041C1.94728 42.3478 2.98554 43.3861 4.29235 43.9274C5.27247 44.3334 6.51498 44.3334 9 44.3334Z" stroke="url(#paint0_linear_607_14)" stroke-width="2" stroke-linecap="round" stroke-linejoin="round"/>
<defs>
<linearGradient id="paint0_linear_607_14" x1="1" y1="23" x2="49" y2="23" gradientUnits="userSpaceOnUse">
<stop stop-color="#445DF4"/>
<stop offset="1" stop-color="#DA5870"/>
</linearGradient>
</defs>
</svg>
