<svg width="50" height="46" viewBox="0 0 50 46" fill="none" xmlns="http://www.w3.org/2000/svg">
<path d="M41 12.3333V10.2C41 7.21301 41 5.71954 40.4187 4.57868C39.9074 3.57515 39.0915 2.75925 38.088 2.24792C36.9471 1.66663 35.4536 1.66663 32.4667 1.66663H9.53333C6.54639 1.66663 5.05291 1.66663 3.91205 2.24792C2.90852 2.75925 2.09262 3.57515 1.5813 4.57868C1 5.71954 1 7.21301 1 10.2V12.3333M49 23H43.6667C40.7211 23 38.3333 25.3878 38.3333 28.3333C38.3333 31.2788 40.7211 33.6666 43.6667 33.6666H49M1 12.3333V35.8C1 38.7869 1 40.2804 1.5813 41.4212C2.09262 42.4248 2.90852 43.2407 3.91205 43.752C5.05291 44.3333 6.54639 44.3333 9.53333 44.3333H40.4667C43.4536 44.3333 44.9471 44.3333 46.088 43.752C47.0915 43.2407 47.9074 42.4248 48.4187 41.4212C49 40.2804 49 38.7869 49 35.8V20.8666C49 17.8797 49 16.3862 48.4187 15.2453C47.9074 14.2418 47.0915 13.4259 46.088 12.9146C44.9471 12.3333 43.4536 12.3333 40.4667 12.3333H1Z" stroke="url(#paint0_linear_608_85)" stroke-width="2" stroke-linecap="round" stroke-linejoin="round"/>
<defs>
<linearGradient id="paint0_linear_608_85" x1="1" y1="23" x2="49" y2="23" gradientUnits="userSpaceOnUse">
<stop stop-color="#445DF4"/>
<stop offset="1" stop-color="#DA5870"/>
</linearGradient>
</defs>
</svg>
