<svg width="30" height="30" viewBox="0 0 30 30" fill="none" xmlns="http://www.w3.org/2000/svg">
<path d="M15.0001 0.279785C6.87208 0.279785 0.280079 6.87179 0.280079 14.9998C0.280079 17.6238 0.984079 20.0553 2.20008 22.1673L0.280079 28.8873C0.216079 29.0793 0.279579 29.3353 0.407579 29.5273C0.599579 29.7193 0.855579 29.7198 1.04758 29.7198L8.08758 27.9923C10.1356 29.0803 12.5041 29.7198 15.0001 29.7198C23.1281 29.7198 29.7201 23.1278 29.7201 14.9998C29.7201 6.87179 23.1281 0.279785 15.0001 0.279785ZM15.0001 1.55979C22.4241 1.55979 28.4401 7.57578 28.4401 14.9998C28.4401 22.4238 22.4241 28.4398 15.0001 28.4398C12.6321 28.4398 10.3926 27.8003 8.47258 26.7123C8.34458 26.6483 8.15183 26.5833 8.02383 26.6473L1.88008 28.1835L3.48008 22.296C3.54408 22.104 3.48033 21.9755 3.41633 21.7835C2.26433 19.7995 1.56008 17.4958 1.56008 14.9998C1.56008 7.57578 7.57608 1.55979 15.0001 1.55979ZM10.5926 7.31228C10.4726 7.30429 10.3926 7.31979 10.3926 7.31979H9.62383C9.23983 7.31979 8.66458 7.44778 8.15258 7.95978C7.83258 8.27979 6.68008 9.43178 6.68008 11.4798C6.68008 13.6558 8.15183 15.5115 8.34383 15.7035C8.34383 15.7035 8.60008 16.0243 8.92008 16.4723C9.24008 16.9203 9.68783 17.4323 10.2638 18.0723C11.4158 19.2883 13.0158 20.6953 15.0638 21.5273C15.9598 21.9113 16.7278 22.1678 17.3038 22.3598C18.3278 22.6798 19.2886 22.6163 19.9926 22.5523C20.5046 22.4883 21.0803 22.2313 21.6563 21.8473C22.2323 21.4633 22.8078 21.016 23.0638 20.376C23.2558 19.864 23.3198 19.4163 23.3838 19.0323V18.5198C23.3838 18.3278 23.3206 18.3283 23.1926 18.0723C22.8726 17.5603 22.5516 17.5603 22.1676 17.4323C21.9756 17.3043 21.3996 17.0483 20.8876 16.7923C20.3116 16.5363 19.8638 16.2803 19.5438 16.1523C19.3518 16.0883 19.0963 15.9595 18.7763 16.0235C18.4563 16.0875 18.1358 16.2798 17.9438 16.5998C17.7518 16.8558 17.0486 17.7513 16.7926 18.0073L16.7276 17.9435C16.4716 17.8155 16.0881 17.6883 15.6401 17.4323C15.1281 17.1763 14.5516 16.7923 13.8476 16.1523C12.8236 15.2563 12.1196 14.1675 11.9276 13.7835C12.1196 13.5275 12.3758 13.2718 12.5038 13.0798C12.5678 13.0158 12.6198 12.9513 12.6638 12.8873C12.7078 12.8233 12.7443 12.76 12.7763 12.696C12.8403 12.568 12.8886 12.4403 12.9526 12.3123C13.2086 11.8643 13.0806 11.352 12.9526 11.096C12.9526 11.096 12.8881 10.9043 12.7601 10.7123C12.6961 10.5203 12.5681 10.1995 12.4401 9.94353C12.1841 9.36753 11.9281 8.72754 11.8001 8.34354C11.6081 7.89553 11.3526 7.57528 11.0326 7.44729C10.8726 7.35128 10.7126 7.32028 10.5926 7.31228ZM9.62383 8.59978H10.3276H10.4563C10.4563 8.59978 10.5198 8.66403 10.5838 8.85604C10.7118 9.24004 11.0318 9.88004 11.2238 10.456C11.3518 10.712 11.4798 11.0315 11.5438 11.2235C11.6078 11.4155 11.6723 11.5443 11.7363 11.6723C11.7363 11.7363 11.8001 11.736 11.8001 11.736C11.6721 11.992 11.6721 12.0553 11.4801 12.2473C11.2881 12.5033 11.0316 12.7593 10.9676 12.8873C10.9036 13.0153 10.7118 13.1438 10.5838 13.3998C10.4558 13.6558 10.5206 14.1035 10.7126 14.4235C10.9686 14.8075 11.7366 16.088 12.9526 17.176C13.7206 17.88 14.4241 18.3275 15.0001 18.5835C15.5761 18.9035 16.0246 19.032 16.1526 19.096C16.4086 19.224 16.6638 19.2873 16.9838 19.2873C17.3038 19.2873 17.5606 19.0318 17.7526 18.8398C18.0086 18.5838 18.6476 17.8155 18.9676 17.3035L19.0963 17.3673C19.0963 17.3673 19.2878 17.4318 19.5438 17.5598C19.7998 17.6878 20.0563 17.8155 20.3763 17.9435C20.9523 18.1995 21.4643 18.4555 21.6563 18.5835L22.0401 18.776V18.9673C22.0401 19.2233 21.9756 19.6083 21.8476 19.9923C21.7836 20.1843 21.4003 20.5675 21.0163 20.8235C20.5683 21.0795 20.0558 21.272 19.8638 21.336C19.2878 21.4 18.5846 21.4633 17.7526 21.2073C17.2406 21.0153 16.5361 20.8238 15.6401 20.4398C13.8481 19.6718 12.3756 18.3918 11.2876 17.2398C10.7756 16.6638 10.3276 16.1513 10.0076 15.7673C9.68758 15.3833 9.56058 15.1278 9.43258 14.9998C9.17658 14.7438 7.96008 13.0795 7.96008 11.5435C7.96008 9.94353 8.72858 9.30404 9.11258 8.85604C9.30458 8.60003 9.55983 8.59978 9.62383 8.59978Z" fill="white"/>
</svg>
