<svg width="29" height="22" viewBox="0 0 29 22" fill="none" xmlns="http://www.w3.org/2000/svg">
<path d="M14.6162 0.759766C10.5503 0.759766 6.57873 1.07417 4.31117 1.54102L4.29742 1.54352L4.28492 1.54727C2.82273 1.91281 1.6882 2.92397 1.44367 4.28852V4.28977C1.17725 5.68885 0.919922 8.01933 0.919922 10.9998C0.919922 14.1626 1.24051 16.3717 1.57242 17.7748C1.81614 19.1354 2.94005 20.223 4.44242 20.5235H4.44367H4.44617C6.82491 20.986 10.6775 21.3035 14.6799 21.3035C18.6823 21.3035 22.5978 20.9865 24.9787 20.5235L24.9949 20.521L25.0112 20.5173C26.4762 20.151 27.6122 19.1359 27.8537 17.7673L27.8549 17.7598L27.8562 17.7535C28.1131 16.0834 28.4387 13.8065 28.5037 10.9498V10.9435V10.936C28.5037 8.58592 28.2426 6.30858 27.8537 4.16852C27.6079 2.77596 26.4185 1.7894 25.0187 1.42102L24.9849 1.41227L24.9487 1.40602C22.7279 1.07953 18.936 0.759766 14.6162 0.759766ZM14.6162 2.03977C18.8468 2.03977 22.5733 2.3569 24.7112 2.66852C25.7314 2.94402 26.4564 3.6133 26.5937 4.39102V4.39227V4.39477C26.9718 6.47455 27.2229 8.67296 27.2237 10.926C27.1604 13.6936 26.8471 15.8916 26.5924 17.5473C26.4494 18.3506 25.7968 18.9947 24.7099 19.2698C22.4799 19.701 18.6029 20.0235 14.6799 20.0235C10.7469 20.0235 6.92057 19.7006 4.69117 19.2673H4.68992C3.63772 19.0552 2.97296 18.3553 2.82992 17.5448L2.82742 17.526L2.82242 17.5073C2.51621 16.2212 2.19992 14.0922 2.19992 10.9998C2.19992 8.09287 2.45565 5.81624 2.70117 4.52727V4.52352L2.70242 4.51852C2.8445 3.71343 3.49812 3.06736 4.58742 2.79227C6.67549 2.3645 10.6267 2.03977 14.6162 2.03977ZM11.1599 5.85852V6.96727V16.141L20.0549 10.9998L11.1599 5.85852ZM12.4399 8.07727L17.4974 10.9998L12.4399 13.9223V8.07727Z" fill="white"/>
</svg>
